<?xml version="1.0" encoding="UTF-8"?>
<svg width="76.674316" height="90.251594" viewBox="0 0 76.674316 90.251594"
     xmlns="http://www.w3.org/2000/svg">
  <defs>
    <clipPath id="face-clip"><path d="m 24.517273,0.14302202 h 29.52319 L 54.197441,9.5 c 10,0.5 21.296537,8.77912 21.296537,12.77912 C 76.156978,36.27912 76,65 75.337,79 c 0,4.5 -7.546484,4.843022 -17.046484,4.843022 v 6.252 L 19.168374,90.252 V 84 C 9.6683743,84 2.2788679,80.988352 2.2788679,76.488352 c -0.663,-14 -0.819978,-38.953409 -0.156978,-52.953409 0,-4 12.3953831,-13.691921 22.3953831,-14.191921 z"/></clipPath>
  </defs>
  <g clip-path="url(#face-clip)">
    <rect x="0" y="0" width="76.6743" height="12.8931" fill="#F2705E"/>
    <rect x="0" y="12.8931" width="76.6743" height="12.8931" fill="#F9BA61"/>
    <rect x="0" y="25.7862" width="76.6743" height="12.8931" fill="#F2CD37"/>
    <rect x="0" y="38.6793" width="76.6743" height="12.8931" fill="#73DCA1"/>
    <rect x="0" y="51.5723" width="76.6743" height="12.8931" fill="#9FC3E9"/>
    <rect x="0" y="64.4654" width="76.6743" height="12.8931" fill="#9195CA"/>
    <rect x="0" y="77.3585" width="76.6743" height="12.8931" fill="#AC78BA"/>
  </g>
  <!-- Head outline: nub on top, face body, narrow neck at bottom.
       Path is clockwise from nub top-left.
       Every right-side coordinate mirrors its left-side counterpart
       around cx = 38.337158. --><path d="m 15.610417,51.064592 c 0,28.926294 45.690626,28.926294 45.690626,0 0,13.257884 -45.690626,13.257884 -45.690626,0 z" id="path8-9-2" style="fill:#151100;stroke-width:0"/><!-- Smile: classic LEGO "U" — a curved band open at the top.
       Outer arc: corners at y=70, dips to y≈82 at center (the bottom of the U).
       Inner arc: returns at y=70, dips only to y≈75.5 → band is ~5.5 units thick at center. --><!-- Left eye: cx = 38.337158 − 14.305 = 24.032, r = 6.4509315 × 1.5 = 9.676 --><circle cx="24.032" cy="35.823162" id="path2" r="9.6759996" style="fill:#000000;stroke-width:0.264583"/><!-- Right eye: cx = 38.337158 + 14.305 = 52.642 (mirror of left) --><circle cx="52.641998" cy="35.823162" id="path2-5" r="9.6759996" style="fill:#000000;stroke-width:0.264583"/>
</svg>
